<?xml version="1.0"?>
<svg xmlns="http://www.w3.org/2000/svg" xmlns:xlink="http://www.w3.org/1999/xlink" version="1.1" id="Capa_1" x="0px" y="0px" viewBox="0 0 512 512" style="enable-background:new 0 0 512 512;" xml:space="preserve" data-ember-extension="1" width="512px" height="512px"><g><script xmlns="" id="ember-inspector-boot-46091487" class="active-path" style="">
  window.EmberENV = { _DEBUG_RENDER_TREE: true };
  document.getElementById("ember-inspector-boot-46091487").remove();
</script><g>
	<g>
		<path d="M423.386,248.299l-256-245.327c-4.208-4.021-10.833-3.958-14.927,0.167l-64,63.998c-2.042,2.042-3.167,4.812-3.125,7.687    c0.042,2.896,1.25,5.625,3.344,7.604l183.792,173.579L88.678,429.586c-2.094,1.979-3.302,4.708-3.344,7.604    c-0.042,2.875,1.083,5.646,3.125,7.687l64,63.998c2.083,2.083,4.813,3.125,7.542,3.125c2.656,0,5.313-0.979,7.385-2.958    l256-245.327c2.094-2.021,3.281-4.792,3.281-7.708C426.667,253.09,425.48,250.319,423.386,248.299z" data-original="#000000" class="active-path" fill="#929292"/>
	</g>
</g></g> </svg>
