<?xml version="1.0"?>
<svg xmlns="http://www.w3.org/2000/svg" xmlns:xlink="http://www.w3.org/1999/xlink" version="1.1" id="Capa_1" x="0px" y="0px" viewBox="0 0 512 512" style="enable-background:new 0 0 512 512;" xml:space="preserve" width="512px" height="512px" class=""><g><g>
	<g>
		<g>
			<path d="M479.25,344.35c4.206-12.68,7.598-25.616,9.354-38.84c1.406-10.677,2.063-19.625,2.063-28.177     c0-37.573-10.094-74.708-29.198-107.385c-1.781-3.042-4.948-5.01-8.458-5.25c-3.438-0.208-6.917,1.26-9.115,4.01     c-4.083,5.156-8.781,10.125-13.969,14.75c-3.688,3.292-4.625,8.677-2.281,13.021C440.958,221.177,448,249.135,448,277.333     c0,5.656-0.302,11.25-0.844,16.76c-0.982,10.049-3.073,19.951-5.87,29.714C433.178,321.576,424.807,320,416,320     c-52.938,0-96,43.063-96,96s43.063,96,96,96s96-43.063,96-96C512,387.389,499.168,361.953,479.25,344.35z" data-original="#000000" class="active-path" data-old_color="#000000" fill="#FFFFFF"/>
			<path d="M305.208,454.271c-1.615-4.656-6.198-7.469-11.115-7.115c-5.51,0.542-11.104,0.844-16.76,0.844     c-45.948,0-89.063-18.042-121.406-50.792c-6.943-7.03-13.02-14.801-18.642-22.911C169.523,358.798,192,326.099,192,288     c0-52.938-43.063-96-96-96S0,235.063,0,288c0,52.038,41.674,94.306,93.372,95.734c7.34,12.699,15.428,24.833,25.044,35.578v0.01     c40.542,45.333,98.458,71.344,158.917,71.344c8.552,0,17.5-0.656,28.177-2.063c3.5-0.458,6.542-2.625,8.135-5.781     c1.583-3.156,1.51-6.885-0.208-9.979C310.302,467.219,307.542,460.969,305.208,454.271z" data-original="#000000" class="active-path" data-old_color="#000000" fill="#FFFFFF"/>
			<path d="M110.219,171.625c7.406,0.896,14.479,2.396,21.021,4.469c1.063,0.333,2.146,0.5,3.219,0.5     c3.229,0,6.344-1.469,8.406-4.104c21.854-27.979,51.125-48.167,84.635-58.385c9.724-2.966,19.688-4.753,29.729-5.947     C263.28,155.313,303.225,192,352,192c52.938,0,96-43.063,96-96S404.938,0,352,0c-42.06,0-77.492,27.357-90.439,65.079     c-13.089,1.027-26.275,2.865-39.488,6.4c-48.198,12.906-90.563,42.531-119.292,83.417c-2.156,3.073-2.542,7.042-1.021,10.469     C103.292,168.792,106.5,171.167,110.219,171.625z" data-original="#000000" class="active-path" data-old_color="#000000" fill="#FFFFFF"/>
		</g>
	</g>
</g></g> </svg>
