<?xml version="1.0"?>
<svg xmlns="http://www.w3.org/2000/svg" height="512px" viewBox="0 -28 511.46057 511" width="512px" data-ember-extension="1" class=""><g transform="matrix(0.710553 0 0 0.710553 74.0202 65.8491)"><script xmlns="" id="ember-inspector-boot-50531049" class="active-path" style="">
  window.EmberENV = { _DEBUG_RENDER_TREE: true };
  document.getElementById("ember-inspector-boot-50531049").remove();
</script><path d="m420.570312 159.773438v-70.628907h-31.3125c2.054688 36.234375 16.226563 62.71875 31.3125 70.628907zm0 0" data-original="#000000" class="active-path" fill="#FFFFFF"/><path d="m387.210938 9.675781c-21.859376 13.207031-36.355469 35.808594-39.242188 61.183594h23.003906c.648438-21.371094 6.203125-42.304687 16.238282-61.183594zm0 0" data-original="#000000" class="active-path" fill="#FFFFFF"/><path d="m420.570312.230469c-15.085937 7.910156-29.257812 34.394531-31.3125 70.628906h31.3125zm0 0" data-original="#000000" class="active-path" fill="#FFFFFF"/><path d="m387.210938 150.328125c-10.035157-18.878906-15.589844-39.8125-16.238282-61.183594h-23.003906c2.886719 25.375 17.382812 47.976563 39.242188 61.183594zm0 0" data-original="#000000" class="active-path" fill="#FFFFFF"/><path d="m470.171875 89.144531h-31.316406v70.628907c15.085937-7.910157 29.257812-34.394532 31.316406-70.628907zm0 0" data-original="#000000" class="active-path" fill="#FFFFFF"/><path d="m511.460938 70.859375c-2.886719-25.375-17.382813-47.976563-39.242188-61.183594 10.035156 18.878907 15.589844 39.8125 16.238281 61.183594zm0 0" data-original="#000000" class="active-path" fill="#FFFFFF"/><path d="m472.21875 150.328125c21.859375-13.207031 36.355469-35.808594 39.242188-61.183594h-23.003907c-.648437 21.371094-6.203125 42.304688-16.238281 61.183594zm0 0" data-original="#000000" class="active-path" fill="#FFFFFF"/><path d="m438.855469.230469v70.628906h31.316406c-2.058594-36.234375-16.230469-62.71875-31.316406-70.628906zm0 0" data-original="#000000" class="active-path" fill="#FFFFFF"/><path d="m0 272h27.429688v-27.425781h-27.429688zm0 0" data-original="#000000" class="active-path" fill="#FFFFFF"/><path d="m0 290.289062h27.429688v27.425782h-27.429688zm0 0" data-original="#000000" class="active-path" fill="#FFFFFF"/><path d="m0 454.859375h27.429688v-27.429687h-27.429688zm0 0" data-original="#000000" class="active-path" fill="#FFFFFF"/><path d="m0 381.714844h27.429688v27.429687h-27.429688zm0 0" data-original="#000000" class="active-path" fill="#FFFFFF"/><path d="m0 336h27.429688v27.429688h-27.429688zm0 0" data-original="#000000" class="active-path" fill="#FFFFFF"/><path d="m228.570312 290.289062h27.429688v27.425782h-27.429688zm0 0" data-original="#000000" class="active-path" fill="#FFFFFF"/><path d="m228.570312 336h27.429688v27.429688h-27.429688zm0 0" data-original="#000000" class="active-path" fill="#FFFFFF"/><path d="m228.570312 381.714844h27.429688v27.429687h-27.429688zm0 0" data-original="#000000" class="active-path" fill="#FFFFFF"/><path d="m109.714844 317.972656v63.988282l45.667968-32.355469zm0 0" data-original="#000000" class="active-path" fill="#FFFFFF"/><path d="m228.570312 262.859375v9.140625h27.429688v-27.425781h-27.429688zm0 0" data-original="#000000" class="active-path" fill="#FFFFFF"/><path d="m228.570312 436.574219v18.285156h27.429688v-27.429687h-27.429688zm0 0" data-original="#000000" class="active-path" fill="#FFFFFF"/><path d="m45.714844 427.429688h164.570312v-155.429688h-164.570312zm45.714844-109.960938c0-6.644531 3.65625-12.75 9.515624-15.886719 5.859376-3.136719 12.96875-2.792969 18.496094.894531l46.410156 32.355469c4.949219 3.378907 7.894532 8.996094 7.859376 14.988281-.03125 5.992188-3.039063 11.574219-8.023438 14.898438l-46.082031 32.136719c-3.011719 2.039062-6.5625 3.132812-10.203125 3.144531-9.941406-.023438-17.984375-8.09375-17.972656-18.039062zm0 0" data-original="#000000" class="active-path" fill="#FFFFFF"/><path d="m109.714844 125.714844v45.714844c0 5.050781 4.09375 9.144531 9.140625 9.144531h18.289062c5.046875 0 9.140625-4.09375 9.140625-9.144531v-45.714844c0-15.148438 12.28125-27.425782 27.429688-27.425782h45.714844v-36.574218h-45.714844c-35.328125.042968-63.960938 28.671875-64 64zm0 0" data-original="#000000" class="active-path" fill="#FFFFFF"/><path d="m237.714844 121.929688 41.929687-41.929688-41.929687-41.925781zm0 0" data-original="#000000" class="active-path" fill="#FFFFFF"/><path d="m387.785156 272h83.859375l-41.929687-41.925781zm0 0" data-original="#000000" class="active-path" fill="#FFFFFF"/><path d="m411.429688 336c0 15.148438-12.28125 27.429688-27.429688 27.429688h-45.714844c-5.050781 0-9.140625 4.09375-9.140625 9.144531v18.285156c0 5.050781 4.089844 9.140625 9.140625 9.140625h45.714844c35.328125-.039062 63.960938-28.667969 64-64v-45.710938h-36.570312zm0 0" data-original="#000000" class="active-path" fill="#FFFFFF"/></g> </svg>
